<svg width="76" height="73" viewBox="0 0 76 73" fill="none" xmlns="http://www.w3.org/2000/svg">
<g clip-path="url(#clip0_2_621)">
<path d="M35.3281 52.5156C34.7131 52.5156 34.2148 52.9858 34.2148 53.5658C34.2148 54.1458 34.7131 54.616 35.3281 54.616H40.6719C41.2869 54.616 41.7852 54.1458 41.7852 53.5658C41.7852 52.9858 41.2869 52.5156 40.6719 52.5156H35.3281Z" fill="#FFB400"/>
<path d="M13.3594 36.209H20.7183C21.1678 37.3126 22.3002 38.0994 23.6264 38.0994C24.9525 38.0994 26.0849 37.3126 26.5344 36.209H28.0053C28.6202 36.209 29.1185 35.7388 29.1185 35.1588C29.1185 34.5788 28.6202 34.1086 28.0053 34.1086H26.5344C26.0849 33.0051 24.9525 32.2183 23.6264 32.2183C22.3002 32.2183 21.1678 33.0051 20.7183 34.1086H13.3594C12.7444 34.1086 12.2461 34.5788 12.2461 35.1588C12.2461 35.7388 12.7444 36.209 13.3594 36.209ZM23.6264 34.3187C24.1175 34.3187 24.517 34.6955 24.517 35.1588C24.517 35.6222 24.1175 35.999 23.6264 35.999C23.1352 35.999 22.7357 35.6222 22.7357 35.1588C22.7357 34.6955 23.1352 34.3187 23.6264 34.3187Z" fill="#FFB400"/>
<path d="M13.3594 30.1875H14.7808C15.2303 31.2911 16.3627 32.0779 17.6889 32.0779C19.015 32.0779 20.1474 31.2911 20.5969 30.1875H28.0053C28.6202 30.1875 29.1185 29.7173 29.1185 29.1373C29.1185 28.5573 28.6202 28.0871 28.0053 28.0871H20.5969C20.1474 26.9836 19.015 26.1968 17.6889 26.1968C16.3627 26.1968 15.2303 26.9836 14.7808 28.0871H13.3594C12.7444 28.0871 12.2461 28.5573 12.2461 29.1373C12.2461 29.7173 12.7444 30.1875 13.3594 30.1875ZM17.6889 28.2972C18.18 28.2972 18.5795 28.674 18.5795 29.1373C18.5795 29.6007 18.18 29.9775 17.6889 29.9775C17.1977 29.9775 16.7982 29.6007 16.7982 29.1373C16.7982 28.674 17.1977 28.2972 17.6889 28.2972Z" fill="#FFB400"/>
<path d="M28.228 20.5257C28.8429 20.5257 29.3413 20.0555 29.3413 19.4755C29.3413 18.8955 28.8429 18.4253 28.228 18.4253C27.6132 18.4253 27.1147 18.8955 27.1147 19.4755C27.1147 20.0555 27.6132 20.5257 28.228 20.5257Z" fill="#FFB400"/>
<path d="M25.1602 20.5257C25.775 20.5257 26.2734 20.0555 26.2734 19.4755C26.2734 18.8955 25.775 18.4253 25.1602 18.4253C24.5453 18.4253 24.0469 18.8955 24.0469 19.4755C24.0469 20.0555 24.5453 20.5257 25.1602 20.5257Z" fill="#FFB400"/>
<path d="M22.0923 20.5257C22.7071 20.5257 23.2056 20.0555 23.2056 19.4755C23.2056 18.8955 22.7071 18.4253 22.0923 18.4253C21.4774 18.4253 20.979 18.8955 20.979 19.4755C20.979 20.0555 21.4774 20.5257 22.0923 20.5257Z" fill="#FFB400"/>
<path d="M72.6602 7.56629H72.2432L72.5542 7.27294C73.4856 6.39427 73.4856 4.96445 72.5542 4.08579L70.1171 1.78683C69.1857 0.908298 67.6701 0.908298 66.7385 1.78683L60.6124 7.56615H3.33984C1.49833 7.56615 0 8.97944 0 10.7168V54.3301C0 56.4534 1.83113 58.1808 4.08203 58.1808H30.4512V65.6099H25.0859C23.6537 65.6099 22.4883 66.7093 22.4883 68.0604V69.1097C22.4883 70.4609 23.6537 71.5602 25.0859 71.5602H50.9141C52.3463 71.5602 53.5117 70.4609 53.5117 69.1097V68.0604C53.5117 66.7093 52.3463 65.6099 50.9141 65.6099H45.5488V58.1808H57.4453C58.0603 58.1808 58.5586 57.7106 58.5586 57.1306C58.5586 56.5506 58.0603 56.0804 57.4453 56.0804H4.08203C3.05885 56.0804 2.22656 55.2953 2.22656 54.3301V51.2215H73.7734V54.3301C73.7734 55.2953 72.9411 56.0804 71.918 56.0804H62.6406C62.0257 56.0804 61.5273 56.5506 61.5273 57.1306C61.5273 57.7106 62.0257 58.1808 62.6406 58.1808H71.918C74.1689 58.1808 76 56.4534 76 54.3301V10.7169C76 8.97972 74.5017 7.56629 72.6602 7.56629ZM50.9141 67.7105C51.1188 67.7105 51.2852 67.8676 51.2852 68.0605V69.1099C51.2852 69.3028 51.1188 69.46 50.9141 69.46H25.0859C24.8812 69.46 24.7148 69.3028 24.7148 69.1099V68.0605C24.7148 67.8676 24.8812 67.7105 25.0859 67.7105H50.9141ZM32.6778 58.1811H43.3224V65.6102H32.6778V58.1811ZM68.313 3.27223C68.3765 3.21244 68.4796 3.21258 68.5428 3.27223L70.9797 5.57105C71.0431 5.63084 71.0431 5.72816 70.9797 5.78781L68.6544 7.98133L65.9877 5.46575L68.313 3.27223ZM64.4133 6.95101L67.0798 9.4666L66.3033 10.1991L63.6368 7.68349L64.4133 6.95101ZM62.0623 9.16876L64.729 11.6843L51.555 24.1119L48.8883 21.5963L62.0623 9.16876ZM60.4141 18.7703C61.9283 18.7703 63.1602 19.9323 63.1602 21.3608C63.1602 22.7892 61.9283 23.9512 60.4141 23.9512C58.8999 23.9512 57.668 22.7892 57.668 21.3608C57.668 21.3441 57.6703 21.328 57.6706 21.3113L60.3621 18.7728C60.3795 18.7725 60.3965 18.7703 60.4141 18.7703ZM49.6218 25.2587L46.3269 26.5282L47.6726 23.42L49.6218 25.2587ZM73.7734 49.1213H2.22656V10.7169C2.22656 10.1379 2.72591 9.66669 3.33984 9.66669H58.386L56.6884 11.268H18.8516C18.2366 11.268 17.7383 11.7382 17.7383 12.3182C17.7383 12.8982 18.2366 13.3684 18.8516 13.3684H54.462L46.6095 20.7764C46.3876 20.9876 46.2141 21.234 46.0946 21.5099L43.6078 27.2532C43.3797 27.7807 43.5082 28.3818 43.9353 28.7846C44.2219 29.0549 44.6031 29.1983 44.9919 29.1983C45.1824 29.1983 45.3747 29.1639 45.5586 29.0932L51.6468 26.7474C51.9309 26.6379 52.185 26.4794 52.4047 26.2785L55.7914 23.0841C56.521 24.8203 58.3171 26.0518 60.4142 26.0518C63.1562 26.0518 65.3869 23.9475 65.3869 21.3609C65.3869 19.3829 64.0817 17.6887 62.2415 17.0003L66.0918 13.3686H69.8493V45.4197H69.2593L65.2248 38.8277C64.9175 38.3253 64.2362 38.1532 63.704 38.4433C63.1716 38.7333 62.9892 39.3756 63.2966 39.8779L66.6884 45.4197H51.1366L49.4686 42.6944L57.2445 29.9893L60.6988 35.6335C61.0063 36.1358 61.6872 36.3081 62.2195 36.0179C62.752 35.7279 62.9344 35.0856 62.627 34.5833L58.9417 28.562C58.5874 27.9832 57.953 27.6376 57.2443 27.6376C56.5357 27.6376 55.9011 27.9832 55.5468 28.562L48.1828 40.5941L38.7342 25.156C38.3799 24.5772 37.7454 24.2316 37.0366 24.2316C36.3281 24.2316 35.6936 24.5772 35.3393 25.156L32.829 29.2576V18.0004C32.829 16.6493 31.6636 15.5499 30.2314 15.5499H11.1328C9.70054 15.5499 8.53516 16.6493 8.53516 18.0004V40.9648C8.53516 41.93 9.36744 42.7151 10.3906 42.7151H24.593L22.9376 45.4199H6.1508V13.3684H13.6562C14.2712 13.3684 14.7695 12.8982 14.7695 12.3182C14.7695 11.7382 14.2712 11.268 13.6562 11.268H5.77971C4.75653 11.268 3.92424 12.0532 3.92424 13.0184V45.7697C3.92424 46.7349 4.75653 47.52 5.77971 47.52H70.2204C71.2436 47.52 72.0759 46.7349 72.0759 45.7697V13.0184C72.0759 12.0532 71.2436 11.268 70.2204 11.268H68.3187L70.0165 9.66669H72.6602C73.2741 9.66669 73.7734 10.1379 73.7734 10.7169V49.1213ZM30.6029 23.8165V40.6144H10.7617V23.8165H30.6029ZM10.7617 21.7161V18.0001C10.7617 17.8072 10.9281 17.65 11.1328 17.65H30.2318C30.4365 17.65 30.6029 17.8072 30.6029 18.0001V21.7161H10.7617ZM27.1641 42.7148H30.974C31.9972 42.7148 32.8295 41.9297 32.8295 40.9645V38.7399C33.1079 38.8659 33.418 38.9341 33.7428 38.9341C34.5028 38.9341 35.1833 38.5633 35.5631 37.9426L37.4578 34.847C37.5151 34.7535 37.6026 34.7337 37.6657 34.7337C37.7291 34.7337 37.8167 34.7535 37.8738 34.847L39.0419 36.7554C39.4219 37.3765 40.1025 37.7471 40.8626 37.7471C41.6226 37.7471 42.3032 37.3765 42.6831 36.7556L42.9731 36.2817L48.5656 45.4195H25.5087L27.1641 42.7148ZM32.8295 35.2244V33.4581L37.0372 26.5832L41.6875 34.1813L40.8625 35.5292L39.802 33.7967C39.3561 33.0681 38.5575 32.6332 37.6656 32.6332C36.7738 32.6332 35.9752 33.0681 35.5293 33.7967L33.7424 36.7162L32.8295 35.2244Z" fill="#FFB400"/>
</g>
<defs>
<clipPath id="clip0_2_621">
<rect width="76" height="71.6937" fill="white" transform="translate(0 0.497559)"/>
</clipPath>
</defs>
</svg>
