<svg width="74" height="71" viewBox="0 0 74 71" fill="none" xmlns="http://www.w3.org/2000/svg">
<path d="M32.375 36.873H41.625V39.0545H32.375V36.873Z" fill="#FFB400"/>
<path d="M35.8438 33.6011H38.1562V42.327H35.8438V33.6011Z" fill="#FFB400"/>
<path d="M65.9062 36.873H68.2188V39.0545H65.9062V36.873Z" fill="#FFB400"/>
<path d="M56.6562 36.873H58.9688V39.0545H56.6562V36.873Z" fill="#FFB400"/>
<path d="M61.2812 32.5103H63.5938V34.6917H61.2812V32.5103Z" fill="#FFB400"/>
<path d="M61.2812 41.2363H63.5938V43.4178H61.2812V41.2363Z" fill="#FFB400"/>
<path d="M10.6597 20.1033L5.45654 13.9679L10.6597 7.83252L12.4652 9.19594L8.4183 13.9679L12.4652 18.7399L10.6597 20.1033Z" fill="#FFB400"/>
<path d="M28.6527 20.1033L26.8472 18.7399L30.8952 13.9679L26.8472 9.19594L28.6527 7.83252L33.8547 13.9679L28.6527 20.1033Z" fill="#FFB400"/>
<path d="M14.7378 17.611L22.8338 8.88721L24.5738 10.3236L16.4778 19.0479L14.7378 17.611Z" fill="#FFB400"/>
<path d="M9.25 48.8712H4.625V44.5083H6.9375V46.6898H9.25V48.8712Z" fill="#FFB400"/>
<path d="M70.5312 3.06055H3.46875C1.55315 3.06055 0 4.52569 0 6.33275V49.9622C0 51.7692 1.55315 53.2344 3.46875 53.2344H27.75V58.688C27.75 60.4951 26.1969 61.9602 24.2812 61.9602H18.5V68.5047H55.5V61.9602H49.7188C47.8031 61.9602 46.25 60.4951 46.25 58.688V53.2344H70.5312C72.4469 53.2344 74 51.7692 74 49.9622V6.33275C74 4.52569 72.4469 3.06055 70.5312 3.06055ZM53.1875 64.1417V66.3232H20.8125V64.1417H53.1875ZM37 59.8246C38.9156 59.8246 40.4688 58.3594 40.4688 56.5524V53.2344H43.9375V58.688C43.942 59.872 44.3587 61.0218 45.1237 61.9602H28.8763C29.6413 61.0218 30.058 59.872 30.0625 58.688V53.2344H33.5312V56.5524C33.5312 58.3594 35.0844 59.8246 37 59.8246ZM35.8438 56.5524V53.2344H38.1562V56.5524C38.1562 57.1547 37.6385 57.6431 37 57.6431C36.3615 57.6431 35.8438 57.1547 35.8438 56.5524ZM71.6875 49.9622C71.6875 50.5645 71.1698 51.0529 70.5312 51.0529H3.46875C2.83022 51.0529 2.3125 50.5645 2.3125 49.9622V40.1455H25.669C26.6265 44.5857 30.3956 48.0038 35.1369 48.7308C39.8776 49.4583 44.6009 47.3429 47.0003 43.4177H52.4349C54.3725 46.5957 57.8774 48.6392 61.7572 48.8533C65.6369 49.0674 69.3699 47.4233 71.6875 44.4803V49.9622ZM62.4375 46.6899C58.923 46.6979 55.7112 44.8158 54.1608 41.8408L53.8407 41.2363H45.5968L45.2767 41.8408C43.2487 45.6977 38.5419 47.5836 34.1918 46.2815C29.8412 44.9788 27.1482 40.8784 27.8494 36.6236C28.55 32.3693 32.436 29.2334 37 29.2382H62.4375C67.5463 29.2382 71.6875 33.1447 71.6875 37.9641C71.6875 42.7834 67.5463 46.6899 62.4375 46.6899ZM71.6875 31.4479C69.5128 28.688 66.083 27.0599 62.4375 27.0567H37C30.6169 27.0631 25.4443 31.9427 25.4375 37.9641H2.3125V6.33275C2.3125 5.7304 2.83022 5.24202 3.46875 5.24202H70.5312C71.1698 5.24202 71.6875 5.7304 71.6875 6.33275V31.4479Z" fill="#FFB400"/>
<path d="M47.4062 36.873H52.0312V39.0545H47.4062V36.873Z" fill="#FFB400"/>
<path d="M34.6875 9.60498H43.9375V11.7865H34.6875V9.60498Z" fill="#FFB400"/>
<path d="M48.5625 9.60498H67.0625V11.7865H48.5625V9.60498Z" fill="#FFB400"/>
<path d="M50.875 13.9678H67.0625V16.1492H50.875V13.9678Z" fill="#FFB400"/>
<path d="M37 13.9678H46.25V16.1492H37V13.9678Z" fill="#FFB400"/>
<path d="M34.6875 18.3306H57.8125V20.512H34.6875V18.3306Z" fill="#FFB400"/>
<path d="M62.4375 18.3306H67.0625V20.512H62.4375V18.3306Z" fill="#FFB400"/>
<path d="M6.9375 22.6938H18.5V24.8753H6.9375V22.6938Z" fill="#FFB400"/>
<path d="M23.125 22.6938H45.0938V24.8753H23.125V22.6938Z" fill="#FFB400"/>
<path d="M48.5625 22.6938H67.0625V24.8753H48.5625V22.6938Z" fill="#FFB400"/>
<path d="M6.9375 27.0566H25.4375V29.2381H6.9375V27.0566Z" fill="#FFB400"/>
<path d="M6.9375 31.4194H16.1875V33.6009H6.9375V31.4194Z" fill="#FFB400"/>
<path d="M18.5 31.4194H23.125V33.6009H18.5V31.4194Z" fill="#FFB400"/>
</svg>
