<svg width="78" height="74" viewBox="0 0 78 74" fill="none" xmlns="http://www.w3.org/2000/svg">
<g clip-path="url(#clip0_2_639)">
<path d="M55.3546 69.1658H74.7125L69.7431 55.1013C68.4435 51.4234 65.1273 48.6962 61.0876 47.9818L47.8062 45.6319V42.7326C50.9879 40.5668 53.2335 37.2675 53.8852 33.4627C56.8543 32.9892 59.1288 30.5622 59.1288 27.6285V19.321C59.1288 8.85123 50.0984 0.33252 38.9998 0.33252C27.9011 0.33252 18.8708 8.85123 18.8708 19.321V27.6285C18.8708 30.5586 21.134 32.9998 24.098 33.4781C24.7522 37.2829 27.0104 40.5857 30.1933 42.7504V45.6331L16.9107 47.9829C12.8723 48.6974 9.55479 51.4246 8.25521 55.1024L3.28711 69.1658H22.645V66.7922H19.2243L21.3491 58.772L18.9085 58.1976L16.6301 66.7922H6.77698L10.643 55.8525C11.6532 52.9923 14.2335 50.8704 17.3749 50.3138L25.3888 48.8968L27.4382 57.5935C26.0996 58.1418 25.1611 59.3974 25.1611 60.8583V70.3526C25.1611 72.3155 26.8544 73.9129 28.9353 73.9129H49.0643C51.1452 73.9129 52.8385 72.3155 52.8385 70.3526V60.8583C52.8385 59.3974 51.9 58.1418 50.5627 57.5935L52.6121 48.8968L60.6259 50.3138C63.7673 50.8704 66.3463 52.9923 67.3578 55.8525L71.2226 66.7922H61.3694L59.0911 58.1976L56.6504 58.772L58.7753 66.7922H55.3546V69.1658ZM50.1374 48.4588L48.4001 55.8335L47.5307 52.5509H42.0368L46.9684 47.8987L50.1374 48.4588ZM46.1947 57.298H31.8049L32.434 54.9244H45.5656L46.1947 57.298ZM38.9998 52.0595L32.7095 46.1256V44.1247C34.6268 44.9578 36.7542 45.4302 38.9998 45.4302C41.2467 45.4302 43.3728 44.9519 45.2901 44.1188V46.1256L38.9998 52.0595ZM54.0966 30.9704V24.2877C55.5572 24.779 56.6127 26.0845 56.6127 27.6297C56.6127 29.1748 55.5572 30.4791 54.0966 30.9704ZM23.903 30.9859C22.4386 30.4957 21.3869 29.176 21.3869 27.6285C21.3869 26.0809 22.4386 24.7612 23.903 24.2711V30.9859ZM21.3869 22.9122V19.321C21.3869 10.1591 29.2875 2.70608 38.9998 2.70608C48.7121 2.70608 56.6127 10.1591 56.6127 19.321V22.9122C55.8679 22.3805 55.0074 21.9877 54.0563 21.8109C53.8588 20.4093 52.5982 19.321 51.0596 19.321C50.2607 19.321 49.4782 19.6272 48.8492 20.2206C46.7243 22.2251 44.0321 23.5032 41.1159 23.9186L41.1964 23.7667C41.4052 23.3703 41.5159 22.9276 41.5159 22.485V22.1859C41.5159 20.6063 40.1534 19.321 38.479 19.321C37.6801 19.321 36.8976 19.6272 36.3314 20.1601C33.6807 22.6594 30.1644 24.0456 26.4191 24.0681V21.6946H25.1611C23.7395 21.6946 22.4411 22.1586 21.3869 22.9122ZM26.4191 31.1888V26.4417C30.8362 26.4191 34.9853 24.7861 38.1091 21.8394C38.4123 21.5522 38.9998 21.786 38.9998 22.1859V22.485C38.9998 22.5609 38.9809 22.6369 38.9444 22.7057L36.9642 26.4417H38.9998C43.393 26.4417 47.5219 24.8289 50.6897 21.8394C50.9942 21.5522 51.5804 21.786 51.5804 22.1859V31.1888C51.5804 37.7327 45.9368 43.0566 38.9998 43.0566C32.0628 43.0566 26.4191 37.7327 26.4191 31.1888ZM31.0312 47.8987L35.9628 52.5509H30.4689L29.5995 55.8335L27.8621 48.4588L31.0312 47.8987ZM28.9353 71.5394C28.2421 71.5394 27.6772 71.0077 27.6772 70.3526V60.8583C27.6772 60.2032 28.2421 59.6715 28.9353 59.6715H32.8491C31.2124 61.1811 30.1933 63.2817 30.1933 65.6055C30.1933 67.9292 31.2124 70.0298 32.8491 71.5394H28.9353ZM38.9998 71.5394C35.5313 71.5394 32.7095 68.8774 32.7095 65.6055C32.7095 62.3335 35.5313 59.6715 38.9998 59.6715C42.4683 59.6715 45.2901 62.3335 45.2901 65.6055C45.2901 68.8774 42.4683 71.5394 38.9998 71.5394ZM50.3224 70.3526C50.3224 71.0077 49.7575 71.5394 49.0643 71.5394H45.1505C46.7872 70.0298 47.8062 67.9292 47.8062 65.6055C47.8062 63.2817 46.7872 61.1811 45.1505 59.6715H49.0643C49.7575 59.6715 50.3224 60.2032 50.3224 60.8583V70.3526Z" fill="#FFB400"/>
<path d="M38.9998 62.0449C36.9189 62.0449 35.2256 63.6423 35.2256 65.6053C35.2256 67.5682 36.9189 69.1656 38.9998 69.1656C41.0806 69.1656 42.774 67.5682 42.774 65.6053C42.774 63.6423 41.0806 62.0449 38.9998 62.0449ZM38.9998 66.792C38.3066 66.792 37.7417 66.2604 37.7417 65.6053C37.7417 64.9502 38.3066 64.4185 38.9998 64.4185C39.693 64.4185 40.2578 64.9502 40.2578 65.6053C40.2578 66.2604 39.693 66.792 38.9998 66.792Z" fill="#FFB400"/>
</g>
<defs>
<clipPath id="clip0_2_639">
<rect width="78" height="73.5804" fill="white" transform="translate(0 0.33252)"/>
</clipPath>
</defs>
</svg>
