<svg width="74" height="71" viewBox="0 0 74 71" fill="none" xmlns="http://www.w3.org/2000/svg">
<g clip-path="url(#clip0_2_627)">
<path d="M37.0002 0.214355C29.0179 0.214355 22.522 6.58501 22.522 14.414V35.1179C22.522 42.9484 29.0179 49.3175 37.0002 49.3175C44.9826 49.3175 51.4785 42.9484 51.4785 35.1179V14.414C51.4785 6.58501 44.9826 0.214355 37.0002 0.214355ZM37.0002 46.2825C31.3119 46.2825 26.6065 42.0743 25.8552 36.6354H48.1437C47.394 42.0758 42.6886 46.2825 37.0002 46.2825ZM48.2611 33.6003H25.7394V14.414C25.7394 8.25734 30.7907 3.24944 37.0002 3.24944C43.2098 3.24944 48.2611 8.25734 48.2611 14.414V33.6003Z" fill="#FFB400"/>
<path d="M59.5218 27.5303C58.6338 27.5303 57.9131 28.2101 57.9131 29.0478V35.118C57.9131 45.9958 48.5312 54.8461 37.0001 54.8461C25.4689 54.8461 16.087 45.9958 16.087 35.118V29.0478C16.087 28.2101 15.3663 27.5303 14.4783 27.5303C13.5903 27.5303 12.8696 28.2101 12.8696 29.0478V35.118C12.8696 47.1567 22.8355 57.0177 35.3914 57.8038V66.9864H27.3479C26.4599 66.9864 25.7392 67.6663 25.7392 68.504C25.7392 69.3417 26.4599 70.0215 27.3479 70.0215H46.6522C47.5402 70.0215 48.2609 69.3417 48.2609 68.504C48.2609 67.6663 47.5402 66.9864 46.6522 66.9864H38.6088V57.8038C51.1646 57.0177 61.1305 47.1567 61.1305 35.118V29.0478C61.1305 28.2101 60.4098 27.5303 59.5218 27.5303Z" fill="#FFB400"/>
</g>
<defs>
<clipPath id="clip0_2_627">
<rect width="74" height="69.807" fill="white" transform="translate(0 0.214355)"/>
</clipPath>
</defs>
</svg>
