<svg width="68" height="65" viewBox="0 0 68 65" fill="none" xmlns="http://www.w3.org/2000/svg">
<path d="M63.2188 7.06055H4.78125C3.79531 7.06157 2.85007 7.4315 2.1529 8.08916C1.45574 8.74683 1.06359 9.63851 1.0625 10.5686V45.649C1.06359 46.5791 1.45574 47.4707 2.1529 48.1284C2.85007 48.7861 3.79531 49.156 4.78125 49.157H26.0552L24.7802 52.1639H19.125C18.8432 52.1639 18.573 52.2695 18.3737 52.4575C18.1744 52.6454 18.0625 52.9004 18.0625 53.1662V55.1708H11.6875C11.4057 55.1708 11.1355 55.2764 10.9362 55.4644C10.7369 55.6523 10.625 55.9073 10.625 56.1731C10.625 56.4389 10.7369 56.6939 10.9362 56.8818C11.1355 57.0698 11.4057 57.1754 11.6875 57.1754H56.3125C56.5943 57.1754 56.8645 57.0698 57.0638 56.8818C57.2631 56.6939 57.375 56.4389 57.375 56.1731C57.375 55.9073 57.2631 55.6523 57.0638 55.4644C56.8645 55.2764 56.5943 55.1708 56.3125 55.1708H49.9375V53.1662C49.9375 52.9004 49.8256 52.6454 49.6263 52.4575C49.427 52.2695 49.1568 52.1639 48.875 52.1639H43.2198L41.9448 49.157H63.2188C64.2047 49.156 65.1499 48.7861 65.8471 48.1284C66.5443 47.4707 66.9364 46.5791 66.9375 45.649V10.5686C66.9364 9.63851 66.5443 8.74683 65.8471 8.08916C65.1499 7.4315 64.2047 7.06157 63.2188 7.06055ZM47.8125 54.1685V55.1708H20.1875V54.1685H47.8125ZM27.0698 52.1639L28.3448 49.157H39.6552L40.9302 52.1639H27.0698ZM64.8125 45.649C64.8121 46.0476 64.6441 46.4298 64.3453 46.7117C64.0465 46.9936 63.6413 47.1521 63.2188 47.1524H4.78125C4.35867 47.1521 3.9535 46.9936 3.65469 46.7117C3.35588 46.4298 3.18785 46.0476 3.1875 45.649V43.1432H64.8125V45.649ZM64.8125 41.1386H3.1875V10.5686C3.18785 10.1699 3.35588 9.78774 3.65469 9.50586C3.9535 9.22398 4.35867 9.06547 4.78125 9.06514H63.2188C63.6413 9.06547 64.0465 9.22398 64.3453 9.50586C64.6441 9.78774 64.8121 10.1699 64.8125 10.5686V41.1386Z" fill="#FFB400"/>
<path d="M29.1671 32.9559C29.2838 33.0282 29.4144 33.078 29.5514 33.1026C29.6885 33.1272 29.8294 33.1261 29.966 33.0993C30.1026 33.0726 30.2323 33.0207 30.3477 32.9466C30.4631 32.8726 30.5618 32.7778 30.6384 32.6678L39.0056 20.6402C39.1602 20.418 39.2149 20.1469 39.1577 19.8866C39.1005 19.6263 38.936 19.3982 38.7004 19.2523C38.4648 19.1064 38.1774 19.0548 37.9015 19.1088C37.6256 19.1628 37.3837 19.318 37.2291 19.5402L28.8619 31.5678C28.7853 31.6778 28.7324 31.801 28.7063 31.9303C28.6802 32.0597 28.6813 32.1926 28.7096 32.3215C28.738 32.4504 28.793 32.5728 28.8715 32.6816C28.9499 32.7905 29.0504 32.8837 29.1671 32.9559Z" fill="#FFB400"/>
<path d="M40.7573 32.8877C40.9738 33.0579 41.2531 33.14 41.5337 33.1159C41.8143 33.0918 42.0733 32.9635 42.2537 32.7593L47.5662 26.7455C47.7253 26.5654 47.8124 26.3384 47.8124 26.1039C47.8124 25.8695 47.7253 25.6425 47.5662 25.4623L42.2537 19.4485C42.1647 19.3466 42.0551 19.2622 41.9314 19.2003C41.8077 19.1384 41.6723 19.1002 41.5328 19.0879C41.3934 19.0755 41.2528 19.0893 41.119 19.1284C40.9853 19.1675 40.861 19.2312 40.7534 19.3158C40.6459 19.4003 40.5571 19.5041 40.4921 19.6212C40.4272 19.7382 40.3875 19.8662 40.3752 19.9978C40.3629 20.1294 40.3783 20.262 40.4205 20.3879C40.4627 20.5139 40.5309 20.6307 40.6212 20.7317L45.3668 26.1039L40.6212 31.4761C40.4408 31.6803 40.3538 31.9438 40.3793 32.2085C40.4049 32.4732 40.5408 32.7176 40.7573 32.8877Z" fill="#FFB400"/>
<path d="M25.7462 32.7593C25.8352 32.8613 25.9448 32.9456 26.0685 33.0075C26.1922 33.0694 26.3276 33.1076 26.4671 33.12C26.6065 33.1323 26.7471 33.1185 26.8809 33.0794C27.0146 33.0403 27.1389 32.9766 27.2465 32.8921C27.354 32.8075 27.4428 32.7037 27.5078 32.5867C27.5727 32.4696 27.6124 32.3416 27.6247 32.21C27.637 32.0785 27.6216 31.9459 27.5794 31.8199C27.5372 31.694 27.469 31.5771 27.3787 31.4761L22.6331 26.1039L27.3787 20.7317C27.469 20.6307 27.5372 20.5139 27.5794 20.3879C27.6216 20.262 27.637 20.1294 27.6247 19.9978C27.6124 19.8662 27.5727 19.7382 27.5078 19.6212C27.4428 19.5041 27.354 19.4003 27.2465 19.3158C27.1389 19.2312 27.0146 19.1675 26.8809 19.1284C26.7471 19.0893 26.6065 19.0755 26.4671 19.0879C26.3276 19.1002 26.1922 19.1384 26.0685 19.2003C25.9448 19.2622 25.8352 19.3466 25.7462 19.4485L20.4337 25.4623C20.2746 25.6424 20.1875 25.8695 20.1875 26.1039C20.1875 26.3384 20.2746 26.5654 20.4337 26.7455L25.7462 32.7593Z" fill="#FFB400"/>
</svg>
